<svg width="140" height="34" xmlns="http://www.w3.org/2000/svg">
  <style>
    .st1{fill:#bd483b}.st3{fill:#fec82f}.st4{fill:#df9c26}
  </style>
  <path d="M43.616 19.576c0 4.005-1.389 6.008-4.168 6.008a4.63 4.63 0 01-1.261-.174v-1.112c.455.154.883.232 1.285.232 1.065 0 1.833-.404 2.304-1.209.471-.807.706-2.063.706-3.769V8.693h1.134v10.883zm3.449 5.129v-1.309c1.188.756 2.393 1.135 3.612 1.135 1.296 0 2.28-.268 2.952-.805.671-.537 1.007-1.288 1.007-2.251 0-.85-.226-1.528-.678-2.032-.451-.506-1.429-1.194-2.935-2.067-1.682-.979-2.747-1.799-3.195-2.46-.447-.66-.671-1.422-.671-2.286 0-1.172.455-2.169 1.366-2.988.911-.817 2.126-1.227 3.647-1.227a9.25 9.25 0 012.963.498v1.204a7.465 7.465 0 00-3.113-.66c-1.127 0-2.02.287-2.681.858-.659.571-.99 1.297-.99 2.177 0 .848.226 1.524.677 2.026.452.5 1.426 1.184 2.923 2.048 1.551.881 2.584 1.663 3.097 2.345.514.684.77 1.469.77 2.356 0 1.274-.442 2.311-1.325 3.114-.884.803-2.133 1.204-3.746 1.204-.572 0-1.229-.09-1.973-.266-.745-.178-1.313-.383-1.707-.614zm12.039.59V8.693h5.881c5.895 0 8.844 2.698 8.844 8.093 0 2.585-.805 4.65-2.413 6.194-1.61 1.543-3.753 2.315-6.431 2.315h-5.881zm3.74-13.556v10.522h1.852c1.621 0 2.892-.485 3.814-1.458.922-.973 1.383-2.296 1.383-3.97 0-1.583-.457-2.827-1.372-3.734-.914-.907-2.199-1.36-3.85-1.36h-1.827zm23.997 13.556h-9.957V8.693h9.574v3.046h-5.834v3.693h5.43v3.032h-5.43v3.796h6.217v3.035zm13.052 0h-9.887V8.693h3.74v13.568h6.147v3.034zm6.096-16.602v16.602h-3.74V8.693h3.74zm17.845 0l-5.719 16.602h-4.236l-5.651-16.602h4.029l3.462 11.553c.186.625.297 1.178.336 1.657h.068a9.38 9.38 0 01.36-1.702l3.439-11.508h3.912zM140 25.295h-4.295l-2.581-4.273a16.22 16.22 0 00-.555-.868 4.91 4.91 0 00-.539-.654 2.125 2.125 0 00-.567-.416 1.445 1.445 0 00-.643-.145h-1.006v6.356h-3.74V8.693H132c4.029 0 6.043 1.506 6.043 4.515a4.67 4.67 0 01-.266 1.604c-.178.49-.428.932-.752 1.325a4.781 4.781 0 01-1.176 1.02 6.047 6.047 0 01-1.534.67v.047c.248.076.486.203.719.375.231.174.455.377.67.61.217.231.424.479.619.746.197.266.377.526.539.782L140 25.295zm-10.185-13.8v4.619h1.62c.803 0 1.448-.231 1.932-.694a2.319 2.319 0 00.742-1.749c0-1.45-.87-2.177-2.605-2.177h-1.689z" fill="#1e3b45"/>
  <path class="st1" d="M15.386.338L12.28 11.376v11.143l3.106 11.143 3.194-11.143V11.376L15.386.338z"/>
  <path fill="#e64e3d" d="M15.386.338L0 5.88l2.186 20.492 13.2 7.29"/>
  <path class="st1" d="M15.386 33.662l13.268-7.365 2.483-20.49L15.386.338"/>
  <path class="st3" d="M12.594 25.088a9.358 9.358 0 01-3.94-2.431l-.003-.002a9.342 9.342 0 01-2.238-3.814c.251.233.518.447.796.647.003.008.008.016.011.027-.003-.012-.008-.02-.011-.027a8.622 8.622 0 001.696.923c.177.07.36.135.542.195.011.006.024.006.035.01.032.012.065.023.097.033a1.702 1.702 0 001.39 1.504c.287 1.157.833 2.146 1.625 2.935zm.58-13.294c0 .324.088.627.243.883-1.25 1.753-2.108 3.656-2.479 5.539-.041.209-.077.416-.105.619-.429.113-.79.393-1.016.762a.071.071 0 01-.035-.01c-.023-.006-.04-.014-.061-.021a7.157 7.157 0 01-2.796-1.715 6.814 6.814 0 01-.311-.332l-.041-.049-.115-.137-.047-.059c-.014-.018-.024-.031-.037-.045-.005-.01-.013-.016-.017-.023-.02-.022-.037-.047-.053-.068-.008-.012-.017-.022-.023-.029l-.004-.008c-.013-.014-.024-.033-.037-.049a3.928 3.928 0 01-.157-.225c-.009-.012-.019-.024-.025-.039a.146.146 0 01-.02-.027 9.338 9.338 0 012.227-6.703 9.361 9.361 0 014.299-2.847c.026.182.059.367.095.553.192.967.513 1.942.949 2.898-.271.3-.434.698-.434 1.132zm-.998 8.685a.89.89 0 01-.308.68.899.899 0 01-1.068.09.91.91 0 01-.342-.375.901.901 0 01-.089-.395.896.896 0 01.377-.732.898.898 0 011.285.245.86.86 0 01.145.487zm3.601-8.685a.902.902 0 01-.902.905c-.044 0-.087-.002-.128-.006-.008-.004-.016-.004-.025-.006a.902.902 0 01.153-1.794h.038a.907.907 0 01.864.901z"/>
  <path class="st4" d="M24.752 16.143c0 .907-.129 1.782-.368 2.61a12.751 12.751 0 01-2.4-.914 1.694 1.694 0 00-.092-.975 14.936 14.936 0 002.499-3.306c.234.821.361 1.69.361 2.585zm-.871-3.947a11.29 11.29 0 01-.201.416 13.81 13.81 0 01-2.487 3.434 1.703 1.703 0 00-1.883.084 16.75 16.75 0 01-1.49-1.327 16.677 16.677 0 01-1.647-1.909 1.695 1.695 0 00.168-1.964 15.981 15.981 0 013.917-2.788 9.414 9.414 0 013.623 4.054zm-2.664 5.307a.902.902 0 01-1.804.081c.011-.01.021-.016.028-.022-.01-.008-.021-.014-.03-.023l-.001-.037a.907.907 0 011.165-.864.909.909 0 01.642.865zm.235 1.264a1.7 1.7 0 01-2.088.151c-.039.025-.078.051-.115.072a13.708 13.708 0 01-3.864 1.698v4.824a9.373 9.373 0 008.64-5.744 14.047 14.047 0 01-2.573-1.001z"/>
  <path class="st3" d="M15.386 20.688a11.71 11.71 0 01-2.385.367l-.128.008c-.151.41-.454.744-.839.94.245.909.688 1.698 1.319 2.327.524.524 1.162.92 1.891 1.18l.142.002v-4.824z"/>
  <path class="st4" d="M18.612 17.503c0-.172.026-.34.074-.498a17.925 17.925 0 01-3.3-3.376v5.946a12.866 12.866 0 003.321-1.511 1.698 1.698 0 01-.095-.561z"/>
  <path class="st3" d="M15.386 13.629c-.045-.059-.091-.113-.132-.174a1.716 1.716 0 01-1.015-.08c-1.134 1.606-1.912 3.341-2.25 5.049-.032.162-.059.32-.083.475.477.195.848.596.996 1.092.016-.004.029-.004.046-.004.809-.039 1.627-.18 2.438-.412v-5.946z"/>
  <path class="st4" d="M15.386 6.778v3.394c.048.016.098.033.145.055a17.238 17.238 0 013.573-2.681 9.3 9.3 0 00-3.718-.768z"/>
  <path class="st3" d="M15.386 6.778c-.608 0-1.201.055-1.773.168.025.197.06.404.101.606.168.86.449 1.725.829 2.575a1.694 1.694 0 01.843.045V6.778z"/>
</svg>
