<?xml version="1.0" encoding="UTF-8"?>
<!-- Generator: Adobe Illustrator 21.1.0, SVG Export Plug-In . SVG Version: 6.00 Build 0)  -->
<svg version="1.1" id="Layer_1" xmlns="http://www.w3.org/2000/svg" xmlns:xlink="http://www.w3.org/1999/xlink" x="0px" y="0px" viewBox="0 0 604 129" enable-background="new 0 0 604 129" xml:space="preserve">
<title>Microsoft logo</title>
<path fill="#FFFFFF" d="M213.2,74.3l-3.6,10.2h-0.3c-0.6-2.3-1.7-5.8-3.5-10L186.5,26h-18.9v77.3h12.5V55.6c0-3,0-6.4-0.1-10.6  c-0.1-2.1-0.3-3.7-0.4-4.9h0.3c0.6,3,1.3,5.2,1.8,6.6l23.2,56.4h8.8l23-56.9c0.5-1.3,1-3.9,1.5-6.1h0.3c-0.3,5.7-0.5,10.8-0.6,13.9  v49h13.3V25.8H233L213.2,74.3z M263.8,47.6h13V103h-13V47.6z M270.4,24.2c-2.2,0-4,0.8-5.5,2.2c-1.5,1.4-2.3,3.2-2.3,5.4  c0,2.1,0.8,3.9,2.3,5.3s3.3,2.1,5.5,2.1s4.1-0.8,5.5-2.1c1.5-1.4,2.3-3.2,2.3-5.3s-0.8-3.9-2.3-5.4C274.6,25,272.7,24.2,270.4,24.2   M322.9,47.1c-2.4-0.5-4.9-0.8-7.3-0.8c-5.9,0-11.3,1.3-15.8,3.9c-4.5,2.6-8.1,6.2-10.4,10.7c-2.4,4.6-3.6,9.9-3.6,16  c0,5.3,1.2,10,3.5,14.3c2.3,4.2,5.5,7.6,9.8,9.9c4.1,2.3,8.9,3.5,14.3,3.5c6.2,0,11.5-1.3,15.7-3.7l0.1-0.1v-12l-0.5,0.4  c-1.9,1.4-4.1,2.6-6.3,3.3c-2.3,0.8-4.4,1.2-6.2,1.2c-5.2,0-9.3-1.5-12.2-4.8c-3-3.2-4.5-7.6-4.5-13.1c0-5.7,1.5-10.2,4.6-13.5  c3.1-3.3,7.2-5,12.2-5c4.2,0,8.5,1.4,12.4,4.2l0.5,0.4V49.2l-0.1-0.1C327.4,48.4,325.5,47.6,322.9,47.1 M365.8,46.7  c-3.2,0-6.2,1-8.8,3.1c-2.2,1.8-3.7,4.4-5,7.5h-0.1v-9.7h-13V103h13V74.7c0-4.8,1-8.8,3.2-11.7c2.2-3,5-4.5,8.4-4.5  c1.2,0,2.4,0.3,3.9,0.5c1.4,0.4,2.4,0.8,3.1,1.3l0.5,0.4v-13l-0.3-0.1C369.8,47,368,46.7,365.8,46.7 M401.2,46.4  c-9.1,0-16.4,2.7-21.5,8c-5.2,5.3-7.7,12.6-7.7,21.8c0,8.6,2.6,15.6,7.6,20.7c5,5,11.8,7.6,20.3,7.6c8.9,0,16-2.7,21.1-8.1  c5.2-5.4,7.7-12.6,7.7-21.5c0-8.8-2.4-15.8-7.3-20.9C416.7,48.9,409.8,46.4,401.2,46.4 M411.6,89c-2.4,3.1-6.2,4.6-10.9,4.6  s-8.5-1.5-11.2-4.8c-2.7-3.1-4-7.6-4-13.3c0-5.9,1.4-10.4,4-13.6c2.7-3.2,6.4-4.8,11.1-4.8c4.6,0,8.2,1.5,10.8,4.6  c2.6,3.1,4,7.6,4,13.5C415.2,81.2,414.1,85.9,411.6,89 M457.7,70.6c-4.1-1.7-6.7-3-7.9-4.1c-1-1-1.5-2.4-1.5-4.2c0-1.5,0.6-3,2.1-4  s3.2-1.5,5.7-1.5c2.2,0,4.5,0.4,6.7,1s4.2,1.5,5.8,2.7l0.5,0.4V48.7l-0.3-0.1c-1.5-0.6-3.5-1.2-5.9-1.7c-2.4-0.4-4.6-0.6-6.4-0.6  c-6.2,0-11.3,1.5-15.3,4.8c-4,3.1-5.9,7.3-5.9,12.2c0,2.6,0.4,4.9,1.3,6.8s2.2,3.7,4,5.2c1.8,1.4,4.4,3,8,4.5c3,1.3,5.3,2.3,6.7,3.1  c1.4,0.8,2.3,1.7,3,2.4c0.5,0.8,0.8,1.8,0.8,3.1c0,3.7-2.8,5.5-8.5,5.5c-2.2,0-4.5-0.4-7.2-1.3s-5.2-2.2-7.3-3.7l-0.5-0.4v12.7  l0.3,0.1c1.9,0.9,4.2,1.5,7,2.2c2.8,0.5,5.3,0.9,7.5,0.9c6.7,0,12.2-1.5,16.1-4.8c4-3.2,6.1-7.3,6.1-12.6c0-3.7-1-7-3.2-9.5  C466.5,75.1,462.9,72.6,457.7,70.6 M506.9,46.4c-9.1,0-16.4,2.7-21.5,8s-7.7,12.6-7.7,21.8c0,8.6,2.6,15.6,7.6,20.7  c5,5,11.8,7.6,20.3,7.6c8.9,0,16-2.7,21.1-8.1c5.2-5.4,7.7-12.6,7.7-21.5c0-8.8-2.4-15.8-7.3-20.9C522.4,48.9,515.5,46.4,506.9,46.4   M517.2,89c-2.4,3.1-6.2,4.6-10.9,4.6c-4.8,0-8.5-1.5-11.2-4.8c-2.7-3.1-4-7.6-4-13.3c0-5.9,1.4-10.4,4-13.6  c2.7-3.2,6.4-4.8,11.1-4.8c4.5,0,8.2,1.5,10.8,4.6c2.6,3.1,4,7.6,4,13.5C521,81.2,519.7,85.9,517.2,89 M603.9,58.3V47.6h-13.1V31.2  l-0.4,0.1L578,35l-0.3,0.1v12.5h-19.6v-7c0-3.2,0.8-5.7,2.2-7.3s3.5-2.4,6.1-2.4c1.8,0,3.7,0.4,5.8,1.3l0.5,0.3V21.2l-0.3-0.1  c-1.8-0.6-4.2-1-7.3-1c-3.9,0-7.3,0.9-10.4,2.4c-3.1,1.7-5.4,4-7.1,7.1c-1.7,3-2.6,6.4-2.6,10.3v7.7h-9.1v10.6h9.1V103h13.1V58.3  h19.6v28.5c0,11.7,5.5,17.6,16.5,17.6c1.8,0,3.7-0.3,5.5-0.6c1.9-0.4,3.3-0.9,4.1-1.3l0.1-0.1V91.7l-0.5,0.4  c-0.8,0.5-1.5,0.9-2.7,1.2c-1,0.3-1.9,0.4-2.6,0.4c-2.6,0-4.4-0.6-5.7-2.1c-1.2-1.4-1.8-3.7-1.8-7.1V58.3L603.9,58.3L603.9,58.3z"/>
<path fill="#F25022" d="M0,0h61.3v61.3H0V0z"/>
<path fill="#7FBA00" d="M67.7,0H129v61.3H67.7V0z"/>
<path fill="#00A4EF" d="M0,67.7h61.3V129H0V67.7z"/>
<path fill="#FFB900" d="M67.7,67.7H129V129H67.7V67.7z"/>
</svg>