<svg xmlns="http://www.w3.org/2000/svg" width="167.728" height="32">
  <g fill-rule="evenodd" clip-rule="evenodd">
    <path d="M32 16c0-8.837-7.163-16-16-16v16h16z" fill="#165ea0"/>
    <path d="M48 16c0 8.837-7.163 16-16 16V16h16z" fill="#104378"/>
    <path d="M32 32c0-8.837-7.163-16-16-16v16h16z" fill="#2491eb"/>
    <path d="M0 16c0 8.837 7.163 16 16 16V16H0z" fill="#85c4f5"/>
  </g>
  <path d="M61.846 8.332c-1.622 0-2.908.49-3.918 1.469-.98.949-1.469 2.173-1.5 3.643h1.928c0-2.173 1.439-3.306 3.49-3.306 2.204 0 3.306 1.224 3.306 3.704v1.01l-4.99 1.041C57.377 16.474 56 17.913 56 20.27c0 2.449 1.684 4.102 4.347 4.102 2.235 0 4.041-1.102 4.867-2.571l.061 2.235h1.837V13.781c-.001-3.459-1.868-5.449-5.266-5.449zm3.306 9.551a4.882 4.882 0 01-1.01 3.03c-.888 1.102-2.081 1.653-3.551 1.653-1.684 0-2.633-.857-2.633-2.326 0-1.561.888-2.235 2.571-2.633l4.622-1.01v1.286zm14.234-9.551c-2.602 0-4.622 1.408-5.51 2.969l-.031-2.633h-1.837v21.948h1.959v-9.153c.765 1.592 2.786 2.908 5.388 2.908 2.173 0 3.918-.765 5.234-2.265 1.316-1.5 1.959-3.428 1.959-5.755 0-2.326-.643-4.255-1.959-5.755-1.285-1.499-3.029-2.264-5.203-2.264zm-.184 1.837c1.653 0 2.969.582 3.918 1.745.98 1.133 1.469 2.633 1.469 4.439s-.49 3.275-1.5 4.439c-1.01 1.163-2.296 1.745-3.918 1.745-1.439 0-2.663-.551-3.704-1.622-1.01-1.071-1.531-2.541-1.531-4.347v-.643c0-1.745.52-3.153 1.531-4.194 1.011-1.042 2.266-1.562 3.735-1.562zm18.581-1.837c-2.602 0-4.622 1.408-5.51 2.969l-.031-2.633h-1.837v21.948h1.959v-9.153c.765 1.592 2.786 2.908 5.388 2.908 2.173 0 3.918-.765 5.234-2.265 1.316-1.5 1.959-3.428 1.959-5.755 0-2.326-.643-4.255-1.959-5.755-1.285-1.499-3.03-2.264-5.203-2.264zm-.184 1.837c1.653 0 2.969.582 3.918 1.745.98 1.133 1.469 2.633 1.469 4.439s-.49 3.275-1.5 4.439c-1.01 1.163-2.296 1.745-3.918 1.745-1.439 0-2.663-.551-3.704-1.622-1.01-1.071-1.531-2.541-1.531-4.347v-.643c0-1.745.52-3.153 1.531-4.194 1.011-1.042 2.266-1.562 3.735-1.562zm16.653-8.786c-3.275 0-5.081 1.837-5.081 5.143v2.02h-2.633v2.969h2.633v12.52h3.275v-12.52h3.704V8.546h-3.704V6.618c0-1.561.704-2.326 2.112-2.326.582 0 1.163.123 1.745.337V1.72c-.521-.214-1.225-.337-2.051-.337zm4.653.306h3.245v22.346h-3.245zm14.142 6.521c-2.265 0-4.102.765-5.479 2.296-1.378 1.5-2.082 3.459-2.082 5.816 0 2.418.704 4.377 2.082 5.847 1.408 1.469 3.245 2.204 5.479 2.204 3.581 0 6-1.867 6.979-5.081h-3.184c-.582 1.469-1.806 2.204-3.704 2.204-2.418 0-4.132-1.592-4.285-4.071h11.295V16.17c0-5.144-2.847-7.96-7.101-7.96zm-.031 2.846c2.296 0 3.826 1.5 3.857 3.826h-7.989c.214-2.234 1.806-3.826 4.132-3.826zM150.28 8.21c-2.265 0-4.102.765-5.479 2.296-1.378 1.5-2.082 3.459-2.082 5.816 0 2.418.704 4.377 2.082 5.847 1.408 1.469 3.245 2.204 5.479 2.204 3.581 0 6-1.867 6.979-5.081h-3.184c-.582 1.469-1.806 2.204-3.704 2.204-2.418 0-4.132-1.592-4.286-4.071h11.295V16.17c.002-5.144-2.845-7.96-7.1-7.96zm-.03 2.846c2.296 0 3.826 1.5 3.857 3.826h-7.989c.214-2.234 1.805-3.826 4.132-3.826zm10.469-6.305l-.031 3.796h-.061v3h.061l-.061 8.051c-.031 3.214 1.531 4.653 4.714 4.653 1.01 0 1.806-.122 2.388-.337v-2.877a5.85 5.85 0 01-1.745.245c-1.592 0-2.112-.673-2.112-2.388l.061-7.347h3.796v-3h-3.765l.031-3.796h-3.276z" fill-rule="evenodd" clip-rule="evenodd" fill="#050c26"/>
</svg>